<svg xmlns="http://www.w3.org/2000/svg" viewBox="0 0 158.46 91.49"><defs><style>.cls-1{fill:#1d1d1b;}.cls-2{isolation:isolate;}.cls-3{fill:#5a5a36;}.cls-4{fill:#7a7a4e;}.cls-5{fill:#bdbc78;}.cls-6{fill:#989761;}</style></defs><g id="Layer_2" data-name="Layer 2"><g id="Layer_1-2" data-name="Layer 1"><polygon class="cls-1" points="77.64 45.25 77.64 46.24 0 46.98 0 44.51 77.64 45.25"/><polygon class="cls-1" points="80.82 46.24 80.82 45.25 158.46 44.51 158.46 46.98 80.82 46.24"/><polygon class="cls-1" points="78.37 46.66 80.09 46.66 81.37 91.49 77.1 91.49 78.37 46.66"/><polygon class="cls-1" points="80.09 44.83 78.37 44.83 77.1 0 81.37 0 80.09 44.83"/><g class="cls-2"><path class="cls-3" d="M75.66,45.87v.78a1.78,1.78,0,0,0,1,1.45,5.59,5.59,0,0,0,5.07,0,1.78,1.78,0,0,0,1.06-1.47v-.78a1.78,1.78,0,0,1-1.06,1.47,5.59,5.59,0,0,1-5.07,0A1.78,1.78,0,0,1,75.66,45.87Z"/><path class="cls-4" d="M76.72,44.39c-1.4.81-1.41,2.12,0,2.93a5.59,5.59,0,0,0,5.07,0c1.41-.81,1.41-2.12,0-2.93A5.59,5.59,0,0,0,76.72,44.39Z"/></g><g class="cls-2"><path class="cls-4" d="M75.46,45.33v.74a1.89,1.89,0,0,0,1.1,1.53,5.87,5.87,0,0,0,5.35,0A1.88,1.88,0,0,0,83,46v-.73a1.88,1.88,0,0,1-1.12,1.56,5.87,5.87,0,0,1-5.35,0A1.87,1.87,0,0,1,75.46,45.33Z"/><path class="cls-5" d="M76.58,43.77c-1.48.86-1.49,2.25,0,3.1a5.87,5.87,0,0,0,5.35,0c1.48-.85,1.49-2.24,0-3.1A5.93,5.93,0,0,0,76.58,43.77Z"/><path class="cls-6" d="M79.23,47.11a5.05,5.05,0,0,0,2.48-.59,1.53,1.53,0,0,0,.92-1.2,1.51,1.51,0,0,0-.9-1.2,5,5,0,0,0-2.47-.59,5.05,5.05,0,0,0-2.48.59,1.55,1.55,0,0,0-.92,1.21,1.49,1.49,0,0,0,.9,1.19A5,5,0,0,0,79.23,47.11Z"/></g><g class="cls-2"><path class="cls-3" d="M76.85,44.84v.51a1.22,1.22,0,0,0,.7,1,3.69,3.69,0,0,0,3.36,0,1.19,1.19,0,0,0,.7-1v-.52a1.18,1.18,0,0,1-.7,1,3.71,3.71,0,0,1-3.37,0A1.16,1.16,0,0,1,76.85,44.84Z"/><path class="cls-4" d="M77.56,43.86a1,1,0,0,0,0,1.94,3.71,3.71,0,0,0,3.37,0,1,1,0,0,0,0-1.94A3.69,3.69,0,0,0,77.56,43.86Z"/></g><g class="cls-2"><path class="cls-4" d="M76.72,44.48V45a1.25,1.25,0,0,0,.73,1A3.9,3.9,0,0,0,81,46a1.25,1.25,0,0,0,.74-1v-.48a1.26,1.26,0,0,1-.74,1,3.9,3.9,0,0,1-3.55,0A1.25,1.25,0,0,1,76.72,44.48Z"/><path class="cls-1" d="M77.46,43.45a1.08,1.08,0,0,0,0,2,3.9,3.9,0,0,0,3.55,0c1-.57,1-1.49,0-2A3.9,3.9,0,0,0,77.46,43.45Z"/></g></g></g></svg>