<svg xmlns="http://www.w3.org/2000/svg" xmlns:xlink="http://www.w3.org/1999/xlink" viewBox="0 0 138.74 101.72"><defs><style>.cls-1{fill:none;}.cls-2{fill:#1d1d1b;}.cls-3{fill:#7a7a4e;}.cls-4{fill:#ededed;}.cls-5{fill:#a6a56a;}.cls-6{fill:#363623;}.cls-7{fill:#656541;}.cls-8{isolation:isolate;}.cls-9{fill:#75754b;}.cls-10{fill:#94935e;}.cls-11{fill:#525134;}.cls-12{fill:#676742;}.cls-13{fill:#41412a;}.cls-14{clip-path:url(#clip-path);}.cls-15{fill:#46462d;}.cls-16{fill:#49492f;}.cls-17{fill:#4b4b30;}.cls-18{fill:#4d4d32;}.cls-19{fill:#505033;}.cls-20{fill:#525235;}.cls-21{fill:#555537;}.cls-22{fill:#5c5c3b;}.cls-23{clip-path:url(#clip-path-2);}.cls-24{fill:#5a5a36;}.cls-25{fill:#bdbc78;}.cls-26{fill:#989761;}.cls-27{fill:#4e4e32;}.cls-28{fill:#74744a;}.cls-29{fill:#e3cc88;}.cls-30{fill:#fff;opacity:0.4;}.cls-31{fill:#79794e;}.cls-32{fill:#6a6a44;}</style><clipPath id="clip-path"><path class="cls-1" d="M102.79,18.79v1a.31.31,0,0,0,.14.24V19A.3.3,0,0,1,102.79,18.79Z"/></clipPath><clipPath id="clip-path-2"><path class="cls-1" d="M10.41,44.42v1.9a.54.54,0,0,0,.25.45v-1.9A.54.54,0,0,1,10.41,44.42Z"/></clipPath></defs><g id="Layer_2" data-name="Layer 2"><g id="Layer_1-2" data-name="Layer 1"><rect class="cls-2" x="21.26" y="78.64" width="2.33" height="26.98" transform="translate(-68.86 66.47) rotate(-60.62)"/><rect class="cls-3" x="31.91" y="97.27" width="3.81" height="2.38" transform="translate(-68.36 78.52) rotate(-60)"/><polygon class="cls-4" points="35.49 96.42 33.78 98.17 34.18 98.75 35.61 96.59 35.49 96.42"/><polygon class="cls-4" points="32.35 98.48 33.78 98.98 34.18 97.94 32.47 98.16 32.35 98.48"/><polygon class="cls-4" points="34.1 100.48 34.38 98.22 33.58 98.69 33.86 100.62 34.1 100.48"/><polygon class="cls-5" points="35.49 96.42 33.78 98.17 34.18 98.75 35.61 96.59 35.49 96.42"/><polygon class="cls-5" points="32.35 98.48 33.78 98.98 34.18 97.94 32.47 98.16 32.35 98.48"/><polygon class="cls-5" points="34.1 100.48 34.38 98.22 33.58 98.69 33.86 100.62 34.1 100.48"/><path class="cls-6" d="M34.57,98.12c0-.38-.27-.53-.59-.34a1.31,1.31,0,0,0-.59,1c0,.37.27.52.59.34A1.33,1.33,0,0,0,34.57,98.12Z"/><path class="cls-2" d="M31.52,100.66c-1,.27-1.82-.39-1.84-1.71a5.52,5.52,0,0,1,2.44-4.36c1.17-.71,2.17-.34,2.44.8Z"/><path class="cls-2" d="M35.6,95.35c-3.72-.19-4.58,2.12-3.45,6.17l-1.71-1,3.44-6.17Z"/><path class="cls-7" d="M34,101.36A5.54,5.54,0,0,0,36.42,97c0-1.59-1.15-2.23-2.52-1.41A5.54,5.54,0,0,0,31.46,100C31.48,101.54,32.61,102.18,34,101.36Zm-.06-4.67c.84-.5,1.53-.11,1.55.87a3.42,3.42,0,0,1-1.5,2.69c-.85.5-1.54.11-1.56-.87A3.41,3.41,0,0,1,33.92,96.69Z"/><path class="cls-6" d="M33.91,96.63a3.54,3.54,0,0,0-1.55,2.78c0,1,.73,1.42,1.61.9a3.51,3.51,0,0,0,1.55-2.78C35.51,96.51,34.79,96.11,33.91,96.63Zm1.18,1.15a2.53,2.53,0,0,1-1.13,2c-.64.38-1.16.09-1.17-.65a2.56,2.56,0,0,1,1.13-2C34.56,96.75,35.08,97,35.09,97.78Z"/><rect class="cls-3" x="116.68" y="36.49" width="3.81" height="2.38" transform="translate(26.66 121.54) rotate(-60)"/><polygon class="cls-4" points="120.25 35.64 118.55 37.39 118.95 37.97 120.38 35.82 120.25 35.64"/><polygon class="cls-4" points="117.12 37.7 118.55 38.2 118.95 37.16 117.24 37.38 117.12 37.7"/><polygon class="cls-4" points="118.87 39.7 119.15 37.45 118.34 37.91 118.63 39.84 118.87 39.7"/><polygon class="cls-5" points="120.25 35.64 118.55 37.39 118.95 37.97 120.38 35.82 120.25 35.64"/><polygon class="cls-5" points="117.12 37.7 118.55 38.2 118.95 37.16 117.24 37.38 117.12 37.7"/><polygon class="cls-5" points="118.87 39.7 119.15 37.45 118.34 37.91 118.63 39.84 118.87 39.7"/><path class="cls-6" d="M119.33,37.34c0-.37-.26-.52-.58-.34a1.3,1.3,0,0,0-.59,1c0,.38.26.53.59.34A1.3,1.3,0,0,0,119.33,37.34Z"/><path class="cls-2" d="M116.29,39.88c-1.05.28-1.83-.38-1.84-1.7a5.53,5.53,0,0,1,2.43-4.37c1.18-.7,2.18-.33,2.45.8Z"/><path class="cls-2" d="M120.37,34.57c-3.73-.19-4.58,2.13-3.45,6.18l-1.72-1,3.45-6.18Z"/><path class="cls-7" d="M118.75,40.58a5.52,5.52,0,0,0,2.44-4.36c0-1.6-1.15-2.23-2.52-1.42a5.55,5.55,0,0,0-2.44,4.37C116.25,40.77,117.38,41.4,118.75,40.58Zm-.07-4.66c.85-.51,1.54-.12,1.55.86a3.35,3.35,0,0,1-1.5,2.69c-.84.5-1.53.12-1.55-.87A3.4,3.4,0,0,1,118.68,35.92Z"/><path class="cls-6" d="M118.68,35.85a3.52,3.52,0,0,0-1.55,2.79c0,1,.73,1.42,1.61.89a3.53,3.53,0,0,0,1.55-2.78C120.27,35.73,119.55,35.33,118.68,35.85ZM119.86,37a2.59,2.59,0,0,1-1.13,2c-.64.38-1.16.08-1.18-.66a2.57,2.57,0,0,1,1.14-2C119.33,36,119.85,36.26,119.86,37Z"/><g class="cls-8"><path class="cls-2" d="M10.6,56.25l12-6.91a2.44,2.44,0,0,1,2.42.24,7.57,7.57,0,0,1,3.43,5.94,2.42,2.42,0,0,1-1,2.24l-12,6.91a2.45,2.45,0,0,0,1-2.24A7.52,7.52,0,0,0,13,56.49,2.42,2.42,0,0,0,10.6,56.25Z"/><path class="cls-9" d="M9.58,58.49c0-2.19,1.54-3.09,3.43-2a7.52,7.52,0,0,1,3.43,5.94c0,2.19-1.53,3.09-3.43,2A7.58,7.58,0,0,1,9.58,58.49Z"/></g><polygon class="cls-10" points="13.01 58.07 14.81 60.32 14.81 62.73 13.01 62.89 11.2 60.64 11.2 58.23 13.01 58.07"/><path class="cls-2" d="M12.11,62.37c0-.57.4-.8.9-.51a2,2,0,0,1,.89,1.54c0,.57-.4.81-.89.52A2,2,0,0,1,12.11,62.37Z"/><path class="cls-2" d="M13.92,62.19c0-.57.4-.8.89-.52a2,2,0,0,1,.9,1.55c0,.57-.4.8-.9.52A2,2,0,0,1,13.92,62.19Z"/><path class="cls-2" d="M13.92,59.8c0-.57.4-.8.89-.52a2,2,0,0,1,.9,1.55c0,.57-.4.8-.9.52A2,2,0,0,1,13.92,59.8Z"/><path class="cls-2" d="M12.11,57.55c0-.57.4-.8.9-.52a2,2,0,0,1,.89,1.55c0,.57-.4.8-.89.52A2,2,0,0,1,12.11,57.55Z"/><path class="cls-2" d="M10.3,57.71c0-.57.4-.8.9-.51a2,2,0,0,1,.89,1.54c0,.57-.4.8-.89.52A2,2,0,0,1,10.3,57.71Z"/><path class="cls-2" d="M10.3,60.12c0-.57.4-.8.9-.51a2,2,0,0,1,.89,1.54c0,.57-.4.81-.89.52A2,2,0,0,1,10.3,60.12Z"/><path class="cls-2" d="M12.11,60c0-.57.4-.8.9-.52A2,2,0,0,1,13.9,61c0,.57-.4.8-.89.52A2,2,0,0,1,12.11,60Z"/><polygon class="cls-11" points="17.67 46.18 16.03 45.23 15.15 55.03 16.79 55.98 17.67 46.18"/><polygon class="cls-11" points="21.8 43.8 20.16 42.84 16.03 45.23 17.67 46.18 21.8 43.8"/><polygon class="cls-11" points="17.67 46.18 16.79 55.98 21.83 53.08 21.8 43.8 17.67 46.18"/><g class="cls-8"><polygon class="cls-12" points="17.67 46.18 16.03 45.23 15.15 55.03 16.79 55.98 17.67 46.18"/><polygon class="cls-12" points="21.8 43.8 20.16 42.84 16.03 45.23 17.67 46.18 21.8 43.8"/><polygon class="cls-11" points="17.67 46.18 16.79 55.98 21.83 53.08 21.8 43.8 17.67 46.18"/></g><g class="cls-8"><path class="cls-11" d="M23.52,56.69l8-4.6a1.21,1.21,0,0,1,1.24.12,3.88,3.88,0,0,1,1.76,3A1.24,1.24,0,0,1,34,56.41L26,61a1.23,1.23,0,0,0,.53-1.15,3.89,3.89,0,0,0-1.77-3.06A1.26,1.26,0,0,0,23.52,56.69Z"/><path class="cls-13" d="M23,57.85c0-1.13.79-1.59,1.76-1a3.89,3.89,0,0,1,1.77,3.06c0,1.13-.79,1.59-1.77,1A3.9,3.9,0,0,1,23,57.85Z"/></g><g class="cls-8"><path class="cls-12" d="M17.4,60.92l6.11-3.5a.93.93,0,0,1,.94.09,3,3,0,0,1,1.34,2.32.94.94,0,0,1-.4.88l-6.1,3.5a1,1,0,0,0,.4-.88A3,3,0,0,0,18.35,61,1,1,0,0,0,17.4,60.92Z"/><path class="cls-13" d="M17,61.8c0-.86.6-1.21,1.34-.79a3,3,0,0,1,1.34,2.32c0,.86-.6,1.21-1.34.79A3,3,0,0,1,17,61.8Z"/></g><g class="cls-8"><path class="cls-12" d="M14.42,63.69l3.21-1.84a.47.47,0,0,1,.49,0,1.57,1.57,0,0,1,.71,1.23.51.51,0,0,1-.21.46l-3.21,1.84a.51.51,0,0,0,.21-.46,1.55,1.55,0,0,0-.71-1.22A.5.5,0,0,0,14.42,63.69Z"/><path class="cls-13" d="M14.21,64.15c0-.45.31-.64.7-.41A1.55,1.55,0,0,1,15.62,65c0,.45-.32.63-.71.41A1.54,1.54,0,0,1,14.21,64.15Z"/></g><g class="cls-8"><path class="cls-11" d="M12.24,64.6l2.41-1.37a.63.63,0,0,1,.64.06,2,2,0,0,1,.92,1.58.66.66,0,0,1-.28.6l-2.4,1.37a.64.64,0,0,0,.27-.6,2,2,0,0,0-.91-1.58A.67.67,0,0,0,12.24,64.6Z"/><path class="cls-12" d="M12,65.2c0-.59.41-.82.92-.54a2,2,0,0,1,.91,1.58c0,.59-.41.83-.91.54A2,2,0,0,1,12,65.2Z"/><path class="cls-2" d="M13.33,65.46a1.56,1.56,0,0,1,.24.78c0,.2-.05.35-.15.4a.42.42,0,0,1-.42-.06,1.6,1.6,0,0,1-.56-.59,1.7,1.7,0,0,1-.24-.79.44.44,0,0,1,.16-.4.43.43,0,0,1,.41.06A1.63,1.63,0,0,1,13.33,65.46Z"/></g><polygon class="cls-11" points="26.61 50.74 25.62 50.16 25.09 56.06 26.08 56.64 26.61 50.74"/><polygon class="cls-11" points="29.1 49.3 28.11 48.73 25.62 50.16 26.61 50.74 29.1 49.3"/><polygon class="cls-11" points="26.61 50.74 26.08 56.64 29.11 54.88 29.1 49.3 26.61 50.74"/><g class="cls-8"><polygon class="cls-12" points="26.61 50.74 25.62 50.16 25.09 56.06 26.08 56.64 26.61 50.74"/><polygon class="cls-12" points="29.1 49.3 28.11 48.73 25.62 50.16 26.61 50.74 29.1 49.3"/><polygon class="cls-6" points="26.61 50.74 26.08 56.64 29.11 54.88 29.1 49.3 26.61 50.74"/></g><g class="cls-8"><g class="cls-8"><g class="cls-14"><g class="cls-8"><path class="cls-15" d="M102.79,18.79v0Z"/><path class="cls-16" d="M102.79,18.8v1s0-1,0-1Z"/><path class="cls-17" d="M102.79,18.85v1s0-1,0-1Z"/><path class="cls-18" d="M102.81,18.89v1s0-1,0-1Z"/><path class="cls-19" d="M102.82,18.93v1s0-1,0-1Z"/><path class="cls-20" d="M102.85,19v1l0,0V19l0-.05Z"/><path class="cls-21" d="M102.89,19v1a7.79,7.79,0,0,0,0-1Z"/></g></g></g><polygon class="cls-22" points="102.92 19.04 102.93 20.05 115.08 29 115.08 27.98 102.92 19.04"/><polygon class="cls-13" points="115.08 27.98 115.08 29 121.19 25.48 121.19 24.46 115.08 27.98"/><path class="cls-12" d="M103.15,18.33c-.37.22-.47.52-.22.71L115.08,28l6.1-3.52-13.73-8a1.4,1.4,0,0,0-1.26.1Z"/></g><g class="cls-8"><g class="cls-8"><g class="cls-23"><g class="cls-8"><path class="cls-15" d="M10.41,44.42v0Z"/><path class="cls-16" d="M10.41,44.43v1.9a.28.28,0,0,0,0,.09v-1.9s0-.06,0-.09Z"/><path class="cls-17" d="M10.42,44.52v1.9a.19.19,0,0,0,0,.07V44.6s0-.05,0-.08Z"/><path class="cls-18" d="M10.44,44.6v1.89l0,.08v-1.9a.25.25,0,0,1,0-.07Z"/><path class="cls-19" d="M10.48,44.67v1.9l0,.07v-1.9l0-.07Z"/><path class="cls-20" d="M10.53,44.74v1.9l.07.08v-1.9l-.07-.08Z"/><path class="cls-21" d="M10.6,44.82v1.9l.07.05v-1.9l-.06,0Z"/></g></g></g><polygon class="cls-2" points="10.66 44.87 10.67 46.77 33.38 63.49 33.38 61.59 10.66 44.87"/><polygon class="cls-13" points="33.38 61.59 33.38 63.49 44.79 56.91 44.78 55.01 33.38 61.59"/><path class="cls-5" d="M10.67,44.87l5.21,3.84.4.3,7.06,5.2.41.29,9.63,7.09L44.78,55l-11-6.37-.46-.27-8-4.65-.46-.26-5.79-3.37a2.7,2.7,0,0,0-2.37.2l-5.66,3.27C10.39,44,10.2,44.53,10.67,44.87Z"/></g><polygon class="cls-9" points="23.34 54.21 23.75 54.5 33.82 48.64 33.36 48.37 23.34 54.21"/><polygon class="cls-9" points="15.88 48.71 16.28 49.01 25.37 43.72 24.91 43.46 15.88 48.71"/><g class="cls-8"><path class="cls-13" d="M36.52,58.72,52.74,49.3a1,1,0,0,0,.41-.91L36.93,57.81A1,1,0,0,1,36.52,58.72Z"/><path class="cls-11" d="M45.79,37.29a1,1,0,0,1,1,.1l5,2.86a3.12,3.12,0,0,1,1.41,2.44l0,5.7L36.93,57.81l0-5.69a3.11,3.11,0,0,0-1.41-2.44l-4.95-2.87a1,1,0,0,0-1-.09Z"/><path class="cls-9" d="M30.59,46.81c-.79-.45-1.42-.09-1.43.81v5.7a3.12,3.12,0,0,0,1.41,2.44l5,2.86c.78.45,1.41.09,1.41-.81l0-5.69a3.11,3.11,0,0,0-1.41-2.44Z"/></g><g class="cls-8"><path class="cls-24" d="M30.53,49.87l.67-.38a1.75,1.75,0,0,1,1.75.17A5.5,5.5,0,0,1,35.44,54a1.76,1.76,0,0,1-.74,1.62L34,56a1.74,1.74,0,0,0,.74-1.62A5.48,5.48,0,0,0,32.28,50,1.74,1.74,0,0,0,30.53,49.87Z"/><path class="cls-3" d="M29.8,51.49c0-1.59,1.11-2.24,2.48-1.45a5.48,5.48,0,0,1,2.49,4.31c0,1.59-1.11,2.24-2.49,1.45A5.46,5.46,0,0,1,29.8,51.49Z"/></g><g class="cls-8"><path class="cls-3" d="M30,50l.63-.36a1.84,1.84,0,0,1,1.84.18,5.81,5.81,0,0,1,2.63,4.55,1.87,1.87,0,0,1-.78,1.72l-.62.36a1.87,1.87,0,0,0,.78-1.72,5.79,5.79,0,0,0-2.63-4.55A1.86,1.86,0,0,0,30,50Z"/><path class="cls-25" d="M29.2,51.68c0-1.68,1.18-2.37,2.63-1.54a5.79,5.79,0,0,1,2.63,4.55c0,1.68-1.18,2.37-2.63,1.54A5.81,5.81,0,0,1,29.2,51.68Z"/><path class="cls-26" d="M33.35,52.3a5,5,0,0,1,.71,2.39,1.47,1.47,0,0,1-.58,1.37A1.49,1.49,0,0,1,32,55.88a5.37,5.37,0,0,1-2.42-4.2,1.49,1.49,0,0,1,.57-1.37,1.48,1.48,0,0,1,1.46.17A5.05,5.05,0,0,1,33.35,52.3Z"/></g><g class="cls-8"><path class="cls-24" d="M30,51.61l.45-.26a1.19,1.19,0,0,1,1.19.12,3.73,3.73,0,0,1,1.7,2.94,1.18,1.18,0,0,1-.5,1.1l-.46.26a1.19,1.19,0,0,0,.51-1.1,3.73,3.73,0,0,0-1.7-2.94A1.19,1.19,0,0,0,30,51.61Z"/><path class="cls-3" d="M29.45,52.72c0-1.08.75-1.53,1.69-1a3.73,3.73,0,0,1,1.7,2.94c0,1.08-.76,1.52-1.7,1A3.72,3.72,0,0,1,29.45,52.72Z"/></g><g class="cls-8"><path class="cls-3" d="M29.57,51.68l.43-.25a1.27,1.27,0,0,1,1.26.12,4,4,0,0,1,1.79,3.1,1.27,1.27,0,0,1-.53,1.17l-.43.25a1.27,1.27,0,0,0,.53-1.17,3.94,3.94,0,0,0-1.79-3.1A1.25,1.25,0,0,0,29.57,51.68Z"/><path class="cls-25" d="M29,52.84c0-1.14.8-1.61,1.79-1a3.94,3.94,0,0,1,1.79,3.1c0,1.14-.8,1.61-1.79,1A3.92,3.92,0,0,1,29,52.84Z"/><path class="cls-2" d="M31.86,53.27a3.29,3.29,0,0,1,.49,1.63,1,1,0,0,1-.39.93,1,1,0,0,1-1-.12,3.69,3.69,0,0,1-1.65-2.87,1,1,0,0,1,.39-.93,1,1,0,0,1,1,.12A3.33,3.33,0,0,1,31.86,53.27Z"/></g><polygon class="cls-27" points="6.58 79.2 1.08 78.17 1.1 83.22 4.63 85.24 6.58 79.2"/><g class="cls-8"><polygon class="cls-27" points="36.89 62.26 30.32 58.44 30.34 66.3 36.91 70.12 36.89 62.26"/><polygon class="cls-11" points="36.89 62.26 36.91 70.12 40.92 65.25 40.91 60.2 36.89 62.26"/><polygon class="cls-3" points="40.91 60.2 36.18 57.5 30.32 58.44 36.89 62.26 40.91 60.2"/><polygon class="cls-5" points="36.89 62.26 30.32 58.44 7.85 71.42 14.42 75.23 36.89 62.26"/><polygon class="cls-27" points="14.42 75.23 7.85 71.42 7.87 79.28 14.44 83.09 14.42 75.23"/><polygon class="cls-6" points="14.42 75.23 14.44 83.09 36.91 70.12 36.89 62.26 14.42 75.23"/></g><polygon class="cls-3" points="14.42 75.23 7.85 71.42 1.08 78.17 4.61 80.19 14.42 75.23"/><polygon class="cls-6" points="4.14 80.47 1.55 78.98 1.56 82.95 4.16 84.44 4.14 80.47"/><polygon class="cls-11" points="14.42 75.23 4.61 80.19 4.63 85.24 14.44 83.09 14.42 75.23"/><g class="cls-8"><path class="cls-3" d="M26.19,61.92a.38.38,0,0,1,.39,0l.35.2a1.21,1.21,0,0,1,.55,1v.41l-15.6,9.06v-.41a1.2,1.2,0,0,0-.55-1L11,71a.38.38,0,0,0-.39,0Z"/><path class="cls-6" d="M11,71c-.3-.18-.55,0-.55.31v.41l1.45.84v-.41a1.2,1.2,0,0,0-.55-1Z"/></g><g class="cls-8"><path class="cls-3" d="M28.75,63.48a.38.38,0,0,1,.39,0l.35.2a1.23,1.23,0,0,1,.55,1v.41L14.44,74.14v-.4a1.2,1.2,0,0,0-.55-.95l-.35-.21a.4.4,0,0,0-.39,0Z"/><path class="cls-6" d="M13.54,72.58c-.3-.17-.55,0-.55.32v.41l1.45.83v-.4a1.2,1.2,0,0,0-.55-.95Z"/></g><g class="cls-8"><polygon class="cls-7" points="125.58 23.9 122.21 21.99 57.16 49.9 68.66 56.57 125.58 23.9"/><polygon class="cls-12" points="61.19 50.87 49.7 44.19 28.93 55.04 40.42 61.72 61.19 50.87"/><polygon class="cls-28" points="40.42 61.72 28.93 55.04 16.11 66.25 27.6 72.92 40.42 61.72"/><polygon class="cls-29" points="39.23 61.83 29.01 55.9 17.3 66.13 27.52 72.07 39.23 61.83"/><polygon class="cls-30" points="24.24 60.65 24.79 60.18 27.46 71.33 25.3 70.09 23.34 61.47 24.24 60.65"/><polygon class="cls-30" points="29.04 56.55 30.35 57.31 32.89 66.58 28.31 70.6 25.65 59.45 29.04 56.55"/><polygon class="cls-31" points="27.6 72.92 16.11 66.25 7.09 78.8 18.59 85.48 27.6 72.92"/><polygon class="cls-29" points="26.58 73.14 16.3 67.17 8.11 78.58 18.39 84.56 26.58 73.14"/><polygon class="cls-30" points="16.21 82.68 14.13 81.48 12.29 73.55 13.59 71.72 16.21 82.68"/><polygon class="cls-30" points="16.43 67.7 19 69.18 21.68 78.97 18.25 83.86 17.36 83.34 14.33 70.67 16.43 67.7"/><polygon class="cls-32" points="6.72 92.22 1.08 88.89 0 94.84 5.64 98.17 6.72 92.22"/><polygon class="cls-9" points="18.59 85.48 7.09 78.8 1.08 88.89 6.72 92.22 18.59 85.48"/><polygon class="cls-13" points="40.42 61.72 27.6 72.92 18.59 85.48 6.72 92.22 5.64 98.17 40.49 84.84 62.57 72.09 68.69 68.56 125.6 30.88 125.58 23.9 68.66 56.57 61.19 50.87 40.42 61.72"/><polygon class="cls-29" points="27.39 74.41 27.39 80.76 19.68 85.16 27.39 74.41"/><polygon class="cls-29" points="28.26 73.27 40.15 62.88 40.83 73.09 28.26 80.26 28.26 73.27"/></g><polygon class="cls-27" points="28.76 92.13 23.27 91.1 23.28 96.15 26.81 98.17 28.76 92.13"/><g class="cls-8"><polygon class="cls-27" points="59.07 75.19 52.51 71.37 52.53 79.23 59.1 83.05 59.07 75.19"/><polygon class="cls-11" points="59.07 75.19 59.1 83.05 63.11 78.18 63.09 73.13 59.07 75.19"/><polygon class="cls-3" points="63.09 73.13 58.36 70.43 52.51 71.37 59.07 75.19 63.09 73.13"/><polygon class="cls-5" points="59.07 75.19 52.51 71.37 30.04 84.34 36.6 88.16 59.07 75.19"/><polygon class="cls-27" points="36.6 88.16 30.04 84.34 30.06 92.21 36.62 96.02 36.6 88.16"/><polygon class="cls-13" points="36.6 88.16 36.62 96.02 59.1 83.05 59.07 75.19 36.6 88.16"/><polygon class="cls-13" points="58.4 82.65 58.38 76.4 37.3 88.56 37.32 94.81 58.4 82.65"/></g><polygon class="cls-3" points="36.6 88.16 30.04 84.34 23.27 91.1 26.8 93.12 36.6 88.16"/><polygon class="cls-2" points="26.33 93.39 23.73 91.91 23.75 95.88 26.34 97.36 26.33 93.39"/><polygon class="cls-11" points="36.6 88.16 26.8 93.12 26.81 98.17 36.62 96.02 36.6 88.16"/><rect class="cls-31" x="15.07" y="71.96" width="0.93" height="12.43" transform="translate(-59.87 52.35) rotate(-59.85)"/><g class="cls-8"><path class="cls-13" d="M134.13,37.33a1.47,1.47,0,0,0,1.21-.13l3-1.75c.23-.14.36-.31.36-.46v1a.6.6,0,0,1-.36.46l-3,1.76a1.46,1.46,0,0,1-1.21.12l-15.41-7.07v-1Z"/><path class="cls-12" d="M118.72,30.26l15.41,7.07a1.47,1.47,0,0,0,1.21-.13l3-1.75c.39-.23.47-.56.17-.74l-13.73-8Z"/></g><g class="cls-8"><path class="cls-3" d="M48.8,74.16a.42.42,0,0,1,.4,0l.34.2a1.2,1.2,0,0,1,.55.95v.41l-15.6,9.07v-.41a1.21,1.21,0,0,0-.55-1l-.35-.2a.38.38,0,0,0-.39,0Z"/><path class="cls-6" d="M33.6,83.27c-.3-.18-.55,0-.55.31V84l1.44.84v-.41a1.21,1.21,0,0,0-.55-1Z"/></g><g class="cls-8"><path class="cls-3" d="M51.36,75.73a.38.38,0,0,1,.39,0l.35.2a1.19,1.19,0,0,1,.55,1v.41l-15.6,9.06V86a1.19,1.19,0,0,0-.54-1l-.35-.2a.38.38,0,0,0-.39,0Z"/><path class="cls-6" d="M36.16,84.83c-.31-.17-.55,0-.55.32v.41l1.45.83V86a1.19,1.19,0,0,0-.54-1Z"/></g><g class="cls-8"><path class="cls-5" d="M34.56,51.45l12.78-6.83a1.2,1.2,0,0,1,1.22-.06l8.21,5.12a1.2,1.2,0,0,0-1.22.07L42.77,56.58a3.55,3.55,0,0,0-1.71,2.88l-8.21-5.12A3.59,3.59,0,0,1,34.56,51.45Z"/><path class="cls-3" d="M42.77,56.58a3.55,3.55,0,0,0-1.71,2.88l16.21-8.64c0-1.11-.77-1.58-1.72-1.07Z"/></g><g class="cls-8"><path class="cls-24" d="M46.7,50.67v.78a1.79,1.79,0,0,1-1,1.46,5.59,5.59,0,0,1-5.07,0,1.8,1.8,0,0,1-1.06-1.48v-.78a1.8,1.8,0,0,0,1.06,1.48,5.59,5.59,0,0,0,5.07,0A1.77,1.77,0,0,0,46.7,50.67Z"/><path class="cls-3" d="M45.64,49.19c1.41.81,1.42,2.13,0,2.94a5.59,5.59,0,0,1-5.07,0c-1.4-.81-1.41-2.13,0-2.94A5.57,5.57,0,0,1,45.64,49.19Z"/></g><g class="cls-8"><path class="cls-11" d="M46.9,50.14v.73a1.88,1.88,0,0,1-1.1,1.54,5.93,5.93,0,0,1-5.35,0,1.9,1.9,0,0,1-1.12-1.56v-.74a1.87,1.87,0,0,0,1.11,1.56,5.87,5.87,0,0,0,5.35,0A1.87,1.87,0,0,0,46.9,50.14Z"/><path class="cls-25" d="M45.79,48.58c1.48.85,1.48,2.24,0,3.09a5.87,5.87,0,0,1-5.35,0c-1.48-.85-1.49-2.24,0-3.1A5.9,5.9,0,0,1,45.79,48.58Z"/><path class="cls-26" d="M43.13,51.91a5.05,5.05,0,0,1-2.48-.58,1.25,1.25,0,0,1,0-2.41,5.55,5.55,0,0,1,4.94,0,1.25,1.25,0,0,1,0,2.41A5,5,0,0,1,43.13,51.91Z"/></g><g class="cls-8"><path class="cls-11" d="M40.29,48.59l.05,1.17a1.4,1.4,0,0,0,.81,1.14,4.41,4.41,0,0,0,4,0,1.4,1.4,0,0,0,.82-1.15l0-1.17a1.42,1.42,0,0,1-.83,1.15,4.38,4.38,0,0,1-4,0A1.43,1.43,0,0,1,40.29,48.59Z"/><path class="cls-26" d="M41.13,47.43c-1.11.64-1.11,1.67,0,2.3a4.38,4.38,0,0,0,4,0,1.22,1.22,0,0,0,0-2.3A4.36,4.36,0,0,0,41.13,47.43Z"/></g><g class="cls-8"><path class="cls-11" d="M42,42.08l0,6.45a.57.57,0,0,0,.33.46,1.82,1.82,0,0,0,1.61,0,.57.57,0,0,0,.33-.47V42.07a.59.59,0,0,1-.34.47,1.76,1.76,0,0,1-1.61,0A.56.56,0,0,1,42,42.08Z"/><path class="cls-26" d="M42.31,41.61c-.45.26-.45.67,0,.93a1.76,1.76,0,0,0,1.61,0c.45-.26.45-.67,0-.93A1.74,1.74,0,0,0,42.31,41.61Z"/></g><g class="cls-8"><path class="cls-2" d="M62.94,88.13l12-6.9a2.41,2.41,0,0,1,2.42.23,7.58,7.58,0,0,1,3.43,5.94,2.44,2.44,0,0,1-1,2.25l-12,6.9a2.43,2.43,0,0,0,1-2.24,7.55,7.55,0,0,0-3.43-5.94A2.42,2.42,0,0,0,62.94,88.13Z"/><path class="cls-9" d="M61.92,90.38c0-2.2,1.53-3.1,3.43-2a7.55,7.55,0,0,1,3.43,5.94c0,2.2-1.53,3.1-3.43,2A7.55,7.55,0,0,1,61.92,90.38Z"/></g><polygon class="cls-10" points="65.34 89.95 67.15 92.2 67.15 94.61 65.34 94.77 63.54 92.52 63.54 90.11 65.34 89.95"/><path class="cls-2" d="M64.45,94.25c0-.57.4-.8.89-.51a2,2,0,0,1,.9,1.55c0,.57-.4.8-.9.51A2,2,0,0,1,64.45,94.25Z"/><path class="cls-2" d="M66.26,94.07c0-.57.4-.8.89-.52a2,2,0,0,1,.9,1.55c0,.57-.4.8-.9.52A2,2,0,0,1,66.26,94.07Z"/><path class="cls-2" d="M66.26,91.68c0-.57.4-.8.89-.51a1.94,1.94,0,0,1,.9,1.54c0,.57-.4.81-.9.52A2,2,0,0,1,66.26,91.68Z"/><path class="cls-2" d="M64.45,89.43c0-.57.4-.8.89-.51a1.94,1.94,0,0,1,.9,1.54c0,.58-.4.81-.9.52A2,2,0,0,1,64.45,89.43Z"/><path class="cls-2" d="M62.64,89.59c0-.57.4-.8.9-.51a2,2,0,0,1,.89,1.55c0,.57-.4.8-.89.51A2,2,0,0,1,62.64,89.59Z"/><path class="cls-2" d="M62.64,92c0-.57.4-.81.9-.52A2,2,0,0,1,64.43,93c0,.57-.4.8-.89.51A1.94,1.94,0,0,1,62.64,92Z"/><path class="cls-2" d="M64.45,91.84c0-.57.4-.8.89-.51a2,2,0,0,1,.9,1.55c0,.57-.4.8-.9.51A2,2,0,0,1,64.45,91.84Z"/><polygon class="cls-11" points="70.01 78.07 68.37 77.11 67.49 86.91 69.13 87.87 70.01 78.07"/><polygon class="cls-11" points="74.14 75.68 72.5 74.73 68.37 77.11 70.01 78.07 74.14 75.68"/><polygon class="cls-11" points="70.01 78.07 69.13 87.87 74.17 84.96 74.14 75.68 70.01 78.07"/><g class="cls-8"><polygon class="cls-12" points="70.01 78.07 68.37 77.11 67.49 86.91 69.13 87.87 70.01 78.07"/><polygon class="cls-12" points="74.14 75.68 72.5 74.73 68.37 77.11 70.01 78.07 74.14 75.68"/><polygon class="cls-11" points="70.01 78.07 69.13 87.87 74.17 84.96 74.14 75.68 70.01 78.07"/></g><g class="cls-8"><path class="cls-11" d="M62.62,81.09l8-4.6a1.21,1.21,0,0,1,1.24.12,3.87,3.87,0,0,1,1.77,3,1.23,1.23,0,0,1-.53,1.15l-8,4.61a1.24,1.24,0,0,0,.52-1.15,3.9,3.9,0,0,0-1.76-3.06A1.26,1.26,0,0,0,62.62,81.09Z"/><path class="cls-13" d="M62.1,82.25c0-1.13.78-1.59,1.76-1a3.9,3.9,0,0,1,1.76,3.06c0,1.13-.79,1.59-1.76,1A3.87,3.87,0,0,1,62.1,82.25Z"/></g><g class="cls-8"><path class="cls-12" d="M56.5,85.32l6.1-3.5a.93.93,0,0,1,.94.09,3,3,0,0,1,1.34,2.32,1,1,0,0,1-.39.88l-6.11,3.5a1,1,0,0,0,.4-.88,3,3,0,0,0-1.34-2.32A.93.93,0,0,0,56.5,85.32Z"/><path class="cls-13" d="M56.1,86.2c0-.86.6-1.21,1.34-.79a3,3,0,0,1,1.34,2.32c0,.86-.6,1.21-1.34.79A3,3,0,0,1,56.1,86.2Z"/></g><g class="cls-8"><path class="cls-12" d="M53.51,88.09l3.21-1.84a.48.48,0,0,1,.5,0,1.56,1.56,0,0,1,.7,1.23.51.51,0,0,1-.2.46l-3.21,1.84a.53.53,0,0,0,.2-.46,1.54,1.54,0,0,0-.7-1.22A.49.49,0,0,0,53.51,88.09Z"/><path class="cls-13" d="M53.3,88.55c0-.45.32-.64.71-.41a1.54,1.54,0,0,1,.7,1.22c0,.45-.31.63-.7.41A1.55,1.55,0,0,1,53.3,88.55Z"/></g><g class="cls-8"><path class="cls-11" d="M51.34,89l2.41-1.37a.63.63,0,0,1,.64.06,2,2,0,0,1,.91,1.58.66.66,0,0,1-.27.6l-2.41,1.37a.64.64,0,0,0,.27-.6A2,2,0,0,0,52,89.06.66.66,0,0,0,51.34,89Z"/><path class="cls-12" d="M51.07,89.6c0-.59.41-.82.91-.54a2,2,0,0,1,.91,1.58c0,.59-.4.83-.91.54A2,2,0,0,1,51.07,89.6Z"/><path class="cls-2" d="M52.43,89.86a1.64,1.64,0,0,1,.24.78.43.43,0,0,1-.16.4.42.42,0,0,1-.42-.06,1.64,1.64,0,0,1-.56-.6,1.62,1.62,0,0,1-.23-.78.44.44,0,0,1,.15-.4.45.45,0,0,1,.42.06A1.63,1.63,0,0,1,52.43,89.86Z"/></g><polygon class="cls-11" points="65.7 75.14 64.72 74.56 64.19 80.46 65.17 81.04 65.7 75.14"/><polygon class="cls-11" points="68.19 73.7 67.2 73.13 64.72 74.56 65.7 75.14 68.19 73.7"/><polygon class="cls-11" points="65.7 75.14 65.17 81.04 68.21 79.28 68.19 73.7 65.7 75.14"/><g class="cls-8"><polygon class="cls-12" points="65.7 75.14 64.72 74.56 64.19 80.46 65.17 81.04 65.7 75.14"/><polygon class="cls-12" points="68.19 73.7 67.2 73.13 64.72 74.56 65.7 75.14 68.19 73.7"/><polygon class="cls-6" points="65.7 75.14 65.17 81.04 68.21 79.28 68.19 73.7 65.7 75.14"/></g><g class="cls-8"><path class="cls-2" d="M77.57,83.29a2.81,2.81,0,0,0,2.27-.24l5.68-3.28a1.11,1.11,0,0,0,.67-.86v1.9a1.11,1.11,0,0,1-.67.86L79.85,85a2.81,2.81,0,0,1-2.27.24L48.79,72v-1.9Z"/><path class="cls-5" d="M48.78,70.08l11.69,5.36.51.24,8.94,4.09.52.24,7.13,3.28a2.77,2.77,0,0,0,2.27-.24l5.68-3.28c.74-.43.89-1,.33-1.37l-6.33-3.67-.46-.27-8-4.65-.46-.27-10.41-6Z"/></g><g class="cls-8"><path class="cls-13" d="M57.07,70.59l16.22-9.42a1,1,0,0,0,.41-.91L57.48,69.69A1,1,0,0,1,57.07,70.59Z"/><path class="cls-11" d="M66.34,49.17a1,1,0,0,1,1,.09l5,2.87a3.07,3.07,0,0,1,1.4,2.44v5.69L57.48,69.69l0-5.7a3.11,3.11,0,0,0-1.41-2.44l-5-2.86a1,1,0,0,0-1-.1Z"/><path class="cls-9" d="M51.13,58.69c-.78-.45-1.42-.09-1.42.81v5.69a3.12,3.12,0,0,0,1.41,2.45l5,2.86c.78.45,1.42.08,1.42-.81l0-5.7a3.11,3.11,0,0,0-1.41-2.44Z"/></g><g class="cls-8"><path class="cls-24" d="M51.08,61.74l.66-.38a1.74,1.74,0,0,1,1.75.17A5.48,5.48,0,0,1,56,65.84a1.78,1.78,0,0,1-.73,1.63l-.67.38a1.76,1.76,0,0,0,.74-1.63,5.5,5.5,0,0,0-2.49-4.31A1.74,1.74,0,0,0,51.08,61.74Z"/><path class="cls-3" d="M50.34,63.37c0-1.59,1.12-2.25,2.49-1.46a5.5,5.5,0,0,1,2.49,4.31c0,1.6-1.12,2.25-2.49,1.46A5.5,5.5,0,0,1,50.34,63.37Z"/></g><g class="cls-8"><path class="cls-3" d="M50.53,61.84l.62-.36a1.84,1.84,0,0,1,1.85.18,5.79,5.79,0,0,1,2.63,4.54,1.87,1.87,0,0,1-.78,1.72l-.63.36A1.87,1.87,0,0,0,55,66.56,5.8,5.8,0,0,0,52.38,62,1.83,1.83,0,0,0,50.53,61.84Z"/><path class="cls-25" d="M49.75,63.55c0-1.68,1.18-2.37,2.63-1.54A5.8,5.8,0,0,1,55,66.56c0,1.68-1.17,2.37-2.62,1.54A5.79,5.79,0,0,1,49.75,63.55Z"/><path class="cls-26" d="M53.89,64.17a5,5,0,0,1,.72,2.39A1.49,1.49,0,0,1,54,67.93a1.45,1.45,0,0,1-1.46-.17A4.91,4.91,0,0,1,50.86,66a5,5,0,0,1-.72-2.4,1.5,1.5,0,0,1,.58-1.37,1.48,1.48,0,0,1,1.46.18A4.91,4.91,0,0,1,53.89,64.17Z"/></g><g class="cls-8"><path class="cls-24" d="M50.49,63.49l.46-.26a1.19,1.19,0,0,1,1.19.11,3.75,3.75,0,0,1,1.7,2.94,1.21,1.21,0,0,1-.51,1.11l-.45.26a1.2,1.2,0,0,0,.5-1.11,3.75,3.75,0,0,0-1.69-2.94A1.18,1.18,0,0,0,50.49,63.49Z"/><path class="cls-3" d="M50,64.59c0-1.08.76-1.53,1.7-1a3.75,3.75,0,0,1,1.69,2.94c0,1.08-.76,1.53-1.69,1A3.73,3.73,0,0,1,50,64.59Z"/></g><g class="cls-8"><path class="cls-3" d="M50.12,63.55l.42-.24a1.25,1.25,0,0,1,1.26.12,3.92,3.92,0,0,1,1.79,3.1,1.27,1.27,0,0,1-.53,1.17l-.42.24a1.28,1.28,0,0,0,.53-1.17,4,4,0,0,0-1.79-3.1A1.25,1.25,0,0,0,50.12,63.55Z"/><path class="cls-25" d="M49.59,64.72c0-1.15.8-1.61,1.79-1a4,4,0,0,1,1.79,3.1c0,1.15-.8,1.62-1.79,1A4,4,0,0,1,49.59,64.72Z"/><path class="cls-2" d="M52.41,65.14a3.29,3.29,0,0,1,.49,1.63,1,1,0,0,1-.39.94,1,1,0,0,1-1-.13,3.22,3.22,0,0,1-1.16-1.23,3.29,3.29,0,0,1-.49-1.63,1,1,0,0,1,.39-.94,1,1,0,0,1,1,.12A3.35,3.35,0,0,1,52.41,65.14Z"/></g><g class="cls-8"><path class="cls-12" d="M120.85,2.91a1.83,1.83,0,0,1,.76-1l3.1-1.8a.58.58,0,0,1,.59,0L127,1a.56.56,0,0,0-.59.06l-3.11,1.79a1.86,1.86,0,0,0-.76,1l-8,25.14-1.64-.95Z"/><path class="cls-6" d="M123.25,2.86a1.86,1.86,0,0,0-.76,1l-8,25.14,9.82-5.67,2.92-21.62c.08-.63-.31-.94-.82-.64Z"/></g><path class="cls-2" d="M59.81,66.71a.46.46,0,0,0,.23-.06l12.08-7a.46.46,0,0,0,.16-.63.45.45,0,0,0-.63-.17l-12.08,7a.47.47,0,0,0,.24.87Z"/><polygon class="cls-9" points="69.92 79.77 70.44 80.01 79.52 74.73 79.06 74.46 69.92 79.77"/><polygon class="cls-9" points="60.47 75.44 60.98 75.68 71.06 69.81 70.6 69.54 60.47 75.44"/><path class="cls-2" d="M59.81,64.18a.46.46,0,0,0,.23-.06l12.08-7a.47.47,0,0,0-.47-.81l-12.08,7a.47.47,0,0,0,.24.87Z"/><polygon class="cls-30" points="30.53 71.92 35.37 75.55 33.62 76.51 29.14 73.15 30.53 71.92"/><polygon class="cls-30" points="34.21 68.8 39.68 73.13 35.77 75.38 30.82 71.69 34.21 68.8"/></g></g></svg>